<svg width="20" height="20" viewBox="0 0 20 20" fill="none" xmlns="http://www.w3.org/2000/svg">

    <!--    main section-->
    <g id="mail">
        <path id="Vector"
              d="M18.125 3.125H1.875C1.5293 3.125 1.25 3.4043 1.25 3.75V16.25C1.25 16.5957 1.5293 16.875 1.875 16.875H18.125C18.4707 16.875 18.75 16.5957 18.75 16.25V3.75C18.75 3.4043 18.4707 3.125 18.125 3.125ZM16.5469 5.25195L10.3848 10.0469C10.2324 10.166 10.0195 10.166 9.86719 10.0469L3.70312 5.25195C3.67989 5.23402 3.66285 5.20927 3.65438 5.18116C3.64592 5.15306 3.64647 5.12301 3.65594 5.09523C3.66542 5.06745 3.68335 5.04333 3.70722 5.02625C3.73109 5.00918 3.75971 5 3.78906 5H16.4609C16.4903 5 16.5189 5.00918 16.5428 5.02625C16.5667 5.04333 16.5846 5.06745 16.5941 5.09523C16.6035 5.12301 16.6041 5.15306 16.5956 5.18116C16.5872 5.20927 16.5701 5.23402 16.5469 5.25195Z"
              fill="white"/>
    </g>

    <g id="download">
        <path id="Vector" d="M10 11.5L13.3333 8.16667M10 11.5V1.5V11.5ZM10 11.5L6.66667 8.16667L10 11.5Z" stroke="white"
              stroke-width="2" stroke-linecap="round" stroke-linejoin="round"/>
        <path id="Vector_2"
              d="M1.66667 13.1667L2.18417 15.2376C2.2743 15.5981 2.48236 15.9182 2.77528 16.147C3.0682 16.3757 3.42918 16.5 3.80084 16.5001H16.1992C16.5708 16.5 16.9318 16.3757 17.2247 16.147C17.5177 15.9182 17.7257 15.5981 17.8158 15.2376L18.3333 13.1667"
              stroke="white" stroke-width="2" stroke-linecap="round" stroke-linejoin="round"/>
    </g>

    <!--    logo section-->

    <g id="figma">
        <path id="Vector"
              d="M63.8833 36.1167C67.4928 36.0084 70.9181 34.4984 73.4329 31.907C75.9477 29.3156 77.3542 25.8466 77.3542 22.2355C77.3542 18.6244 75.9477 15.1554 73.4329 12.564C70.9181 9.97255 67.4928 8.46257 63.8833 8.35425H36.1167C32.5072 8.46257 29.0819 9.97255 26.5671 12.564C24.0523 15.1554 22.6458 18.6244 22.6458 22.2355C22.6458 25.8466 24.0523 29.3156 26.5671 31.907C29.0819 34.4984 32.5072 36.0084 36.1167 36.1167C32.4757 36.1798 29.0051 37.6705 26.4526 40.2676C23.9 42.8648 22.4697 46.3606 22.4697 50.0022C22.4697 53.6437 23.9 57.1395 26.4526 59.7367C29.0051 62.3339 32.4757 63.8245 36.1167 63.8876C32.4935 63.9764 29.0485 65.478 26.5173 68.072C23.9862 70.6659 22.5693 74.1466 22.5693 77.7709C22.5693 81.3952 23.9862 84.8759 26.5173 87.4698C29.0485 90.0638 32.4935 91.5655 36.1167 91.6543C39.7988 91.652 43.3294 90.188 45.9327 87.584C48.536 84.9799 49.9989 81.4489 50 77.7667V36.1167H63.8833Z"
              fill="white" fill-opacity="0.5"/>
        <path id="Vector_2"
              d="M63.8833 63.8834C71.5509 63.8834 77.7667 57.6676 77.7667 50C77.7667 42.3325 71.5509 36.1167 63.8833 36.1167C56.2158 36.1167 50 42.3325 50 50C50 57.6676 56.2158 63.8834 63.8833 63.8834Z"
              fill="white" fill-opacity="0.5"/>
    </g>

    <g id="css">
        <path id="Vector"
              d="M17.4667 13.0957H82.5292L76.6125 79.904L49.9292 87.454L23.3917 79.8999L17.4667 13.0957ZM70.4167 26.7665L29.5833 26.7582L30.2417 34.879L61.6125 34.8874L60.825 43.304H40.25L40.9958 51.2749H60.15L59.0167 62.1915L50 64.6832L40.8458 62.1707L40.2583 55.6332H32.175L33.075 67.579L50 72.8499L66.6458 68.1124L70.4167 26.7665Z"
              fill="white" fill-opacity="0.5"/>
    </g>

    <g id="sass">
        <path id="Vector"
              d="M48.1624 69.2063C48.0687 69.3751 48.1156 69.3001 48.1624 69.2063V69.2063ZM87.0874 55.6126C83.9437 55.6126 80.8437 56.3313 78.0249 57.7219C77.1031 55.8626 76.1499 54.2376 75.9937 53.0188C75.8062 51.5969 75.6031 50.7532 75.8218 49.0657C76.0406 47.3782 77.0249 44.9876 77.0093 44.8157C76.9937 44.6438 76.7906 43.7844 74.7749 43.7688C72.7593 43.7532 71.0249 44.1594 70.8218 44.6907C70.4652 45.6613 70.1882 46.6594 69.9937 47.6751C69.6343 49.5032 65.9656 56.0344 63.8874 59.4407C63.1999 58.1126 62.6218 56.9407 62.4968 56.0032C62.3093 54.5813 62.1062 53.7376 62.3249 52.0501C62.5437 50.3626 63.5281 47.9719 63.5124 47.8001C63.4968 47.6282 63.2937 46.7688 61.2812 46.7532C59.2687 46.7376 57.5312 47.1438 57.3281 47.6751C57.1249 48.2063 56.9062 49.4563 56.4999 50.6594C56.0937 51.8626 51.2031 62.7376 49.9249 65.5657C49.2687 67.0032 48.7062 68.1594 48.2999 68.9407C48.2374 69.0657 48.1906 69.1438 48.1593 69.2063C48.2062 69.1282 48.2374 69.0501 48.2374 69.0813C47.8937 69.7532 47.6906 70.1282 47.6906 70.1282V70.1438C47.4249 70.6438 47.1281 71.0969 46.9874 71.0969C46.8937 71.0969 46.6906 69.7844 47.0343 67.9876C47.7687 64.2063 49.5031 58.3313 49.4874 58.1282C49.4718 58.0188 49.8156 57.0032 48.3468 56.4563C46.9249 55.9407 46.4093 56.8001 46.2843 56.8001C46.1593 56.8001 46.0656 57.1126 46.0656 57.1126C46.0656 57.1126 47.6437 50.4876 43.0343 50.4876C40.1593 50.4876 36.1593 53.6438 34.1937 56.5032C32.9593 57.1751 30.2874 58.6282 27.4749 60.1751L24.2406 61.9563C24.1624 61.8782 24.0999 61.8001 24.0218 61.7219C18.4281 55.7532 8.10307 51.5344 8.54057 43.5188C8.69682 40.5969 9.71244 32.9251 28.3968 23.6126C43.7093 15.9876 55.9499 18.0813 58.0593 22.7376C61.0906 29.3782 51.5124 41.7376 35.6124 43.5188C29.5499 44.1907 26.3656 41.8469 25.5687 40.9719C24.7406 40.0501 24.6156 40.0032 24.3031 40.1751C23.7874 40.4563 24.1156 41.2688 24.3031 41.7532C24.7718 42.9876 26.7249 45.1751 30.0531 46.2688C32.9749 47.2219 40.0812 47.7532 48.6718 44.4251C58.3249 40.7063 65.8406 30.3469 63.6343 21.6751C61.3906 12.8626 46.7781 9.97194 32.9624 14.8782C24.7281 17.8001 15.8249 22.3938 9.42182 28.3782C1.81244 35.5032 0.596815 41.7063 1.09682 44.3001C2.87807 53.5032 15.5624 59.5032 20.6374 63.9407L19.9343 64.3313C17.3874 65.5969 7.71869 70.6594 5.29682 76.0032C2.56244 82.0657 5.74994 86.4094 7.84057 87.0032C14.3718 88.8157 21.0562 85.5501 24.6499 80.1907C28.2437 74.8313 27.8062 67.8313 26.1499 64.6438C26.1343 64.5969 26.1031 64.5657 26.0874 64.5188C27.9624 63.4083 29.8532 62.3248 31.7593 61.2688C31.1343 62.9563 30.6812 64.9876 30.4468 67.9251C30.1656 71.3626 31.5874 75.8157 33.4312 77.5657C34.2437 78.3313 35.2249 78.3469 35.8374 78.3469C37.9937 78.3469 38.9624 76.5657 40.0406 74.4407C41.3687 71.8469 42.5406 68.8313 42.5406 68.8313C42.5406 68.8313 41.0718 76.9876 45.0874 76.9876C46.5562 76.9876 48.0249 75.0969 48.6812 74.1282V74.1438C48.6812 74.1438 48.7124 74.0813 48.7906 73.9563C48.9468 73.7219 49.0249 73.5813 49.0249 73.5813V73.5344C49.6187 72.5188 50.9156 70.1907 52.8687 66.3469C55.3999 61.3782 57.8187 55.1751 57.8187 55.1751C58.0531 56.5376 58.3781 57.8844 58.7874 59.2063C59.2249 60.6907 60.1468 62.3157 60.8812 63.8938C60.2874 64.7063 59.9281 65.1751 59.9281 65.1751C59.9281 65.1876 59.9343 65.1969 59.9437 65.2063C59.4749 65.8313 58.9437 66.5032 58.3968 67.1594C56.3999 69.5344 54.0218 72.2532 53.7093 73.0344C53.3343 73.9563 53.4281 74.6438 54.1468 75.1751C54.6781 75.5813 55.6156 75.6438 56.5999 75.5657C58.3968 75.4407 59.6624 75.0032 60.2718 74.7219C61.3958 74.3192 62.4581 73.7618 63.4281 73.0657C65.3812 71.6282 66.5687 69.5657 66.4593 66.8469C66.3968 65.3469 65.9124 63.8469 65.3187 62.4407C65.4906 62.1907 65.6781 61.9251 65.8499 61.6594C67.8833 58.6255 69.7153 55.4614 71.3343 52.1876C71.5687 53.5501 71.8906 54.8969 72.3031 56.2188C72.6781 57.4844 73.4124 58.8751 74.0843 60.2344C71.1781 62.5938 69.3812 65.3282 68.7593 67.1251C67.6031 70.4532 68.5093 71.9532 70.2124 72.2969C70.9781 72.4532 72.0718 72.0938 72.8843 71.7501C74.0906 71.3469 75.2281 70.7626 76.2562 70.0157C78.2093 68.5782 80.0999 66.5626 79.9718 63.8282C79.9249 62.5938 79.5812 61.3594 79.1281 60.1719C81.5812 59.1407 84.7687 58.5782 88.8312 59.0469C97.5312 60.0626 99.2343 65.5001 98.9062 67.7657C98.5781 70.0313 96.7499 71.2969 96.1406 71.6719C95.5312 72.0469 95.3437 72.1876 95.3906 72.4688C95.4687 72.8751 95.7499 72.8594 96.2656 72.7657C96.9843 72.6407 100.828 70.9219 101 66.7188C101.25 61.4063 96.1406 55.5626 87.0937 55.6094L87.0874 55.6126ZM20.0281 78.2219C17.1531 81.3626 13.1249 82.5501 11.3906 81.5501C9.53119 80.4688 10.2656 75.8469 13.8093 72.5001C15.9656 70.4688 18.7468 68.5938 20.5906 67.4376C21.0124 67.1876 21.6218 66.8126 22.3718 66.3594C22.4328 66.3204 22.4953 66.2839 22.5593 66.2501C22.6999 66.1563 22.8562 66.0782 23.0124 65.9844C24.3062 70.7344 23.0593 74.9219 20.0281 78.2188V78.2219ZM41.0218 63.9407C40.0218 66.3938 37.9156 72.6438 36.6312 72.3157C35.5374 72.0344 34.8656 67.2688 36.4124 62.5813C37.1937 60.2219 38.8499 57.4094 39.8343 56.3157C41.4124 54.5501 43.1468 53.9876 43.5531 54.6907C44.0999 55.6126 41.6468 62.4094 41.0218 63.9407ZM58.3656 72.2219C57.9437 72.4407 57.5531 72.5813 57.3656 72.4719C57.2249 72.3938 57.5374 72.0969 57.5374 72.0969C57.5374 72.0969 59.7093 69.7688 60.5687 68.7063C61.0687 68.0813 61.6468 67.3469 62.2718 66.5344C62.2718 66.6126 62.2874 66.6907 62.2874 66.7844C62.2687 69.5813 59.5812 71.4719 58.3624 72.2219H58.3656ZM71.7406 69.1751C71.4281 68.9563 71.4749 68.2219 72.5218 65.9407C72.9281 65.0501 73.8656 63.5501 75.4906 62.1126C75.6749 62.6563 75.7749 63.2251 75.7874 63.8001C75.7718 67.3157 73.2562 68.6282 71.7406 69.1751Z"
              fill="white" fill-opacity="0.5"/>
    </g>

    <g id="html">
        <path id="Vector"
              d="M14.1798 9.375L20.6251 82.2852L50.0001 90.625L79.258 82.2852L85.8302 9.375H14.1798ZM72.2853 26.6699L71.8166 31.2793L71.6505 33.1836H37.3341L38.1349 42.3828H70.8595L70.5373 44.7559L68.4669 68.4082L68.3009 69.9902L50.0392 75.0293V75.0586H49.922L49.8927 75.0684V75.0586H49.883L31.465 69.9805L30.3517 55.8594H39.2482L39.883 63.0078L49.883 65.7129H49.922L59.883 63.0176L60.9962 51.4355H49.8927V51.4258H29.883L27.6564 26.6699L27.4904 24.2969H72.4415L72.2853 26.6699Z"
              fill="white" fill-opacity="0.5"/>
    </g>

    <g id="react">
        <path id="Vector"
              d="M100 44.7043C100 38.0793 91.7042 31.8001 78.9833 27.9084C81.9208 14.9459 80.6167 4.62925 74.8667 1.32508C73.4734 0.54475 71.8965 0.151965 70.3 0.187581V4.72925C71.2375 4.72925 71.9917 4.91675 72.625 5.26258C75.3958 6.85425 76.6 12.9042 75.6625 20.6918C75.4375 22.6084 75.0708 24.6251 74.6208 26.6834C70.361 25.6569 66.0375 24.915 61.6792 24.4626C59.0827 20.8805 56.25 17.4757 53.2 14.2709C59.8458 8.09592 66.0833 4.71258 70.325 4.71258V0.166748C64.7167 0.166748 57.3792 4.16258 49.9583 11.0917C42.5417 4.20842 35.2 0.250081 29.5958 0.250081V4.79175C33.8167 4.79175 40.075 8.15841 46.7208 14.2917C43.8667 17.2917 41.0125 20.6917 38.3 24.4626C33.9326 24.91 29.6015 25.659 25.3375 26.7042C24.8667 24.6667 24.5208 22.6918 24.275 20.7959C23.3167 13.0042 24.5 6.95425 27.2542 5.34592C27.8625 4.97925 28.6583 4.81258 29.5958 4.81258V0.270915C27.8875 0.270915 26.3333 0.637581 24.9917 1.40841C19.2625 4.71258 17.9792 15.0042 20.9333 27.9293C8.25417 31.8459 0 38.1001 0 44.7043C0 51.3293 8.29583 57.6084 21.0167 61.4959C18.0792 74.4626 19.3833 84.7793 25.1333 88.0793C26.4583 88.8543 28.0083 89.2209 29.7167 89.2209C35.325 89.2209 42.6625 85.2251 50.0833 78.2959C57.5 85.1834 64.8375 89.1376 70.4458 89.1376C72.0546 89.1716 73.6435 88.7776 75.05 87.9959C80.7792 84.6959 82.0625 74.4043 79.1083 61.4793C91.7458 57.5876 100 51.3084 100 44.7043ZM73.4583 31.1084C72.6666 33.8328 71.7489 36.519 70.7083 39.1584C69.0048 35.8449 67.1344 32.6199 65.1042 29.4959C68 29.9251 70.7917 30.4542 73.4625 31.1084H73.4583ZM64.125 52.8168C62.5375 55.5668 60.9042 58.1793 59.2125 60.6043C53.0969 61.1433 46.946 61.1502 40.8292 60.6251C37.3206 55.6133 34.2522 50.3074 31.6583 44.7668C34.2483 39.213 37.3036 33.8885 40.7917 28.8501C46.9058 28.31 53.0553 28.3016 59.1708 28.8251C60.8625 31.2501 62.5167 33.8418 64.1042 36.5751C65.6542 39.2418 67.0625 41.9501 68.3458 44.6834C67.0483 47.4499 65.6402 50.1632 64.125 52.8168V52.8168ZM70.7083 50.1668C71.8083 52.8959 72.75 55.6293 73.5208 58.2793C70.8542 58.9334 68.0375 59.4834 65.125 59.9084C67.1468 56.756 69.0103 53.5047 70.7083 50.1668V50.1668ZM50.0417 71.9168C48.1458 69.9584 46.25 67.7793 44.375 65.3918C46.2083 65.4751 48.0833 65.5376 49.9792 65.5376C51.8958 65.5376 53.7917 65.4959 55.6458 65.3918C53.8125 67.7793 51.9167 69.9584 50.0417 71.9168ZM34.875 59.9084C32.0656 59.5014 29.2765 58.9647 26.5167 58.3001C27.2708 55.6709 28.2083 52.9584 29.2667 50.2501C30.1042 51.8751 30.9833 53.5084 31.9417 55.1418C32.9 56.7709 33.875 58.3626 34.875 59.9084ZM49.9375 17.4917C51.8333 19.4501 53.7292 21.6292 55.6042 24.0167C53.7708 23.9334 51.8958 23.8709 50 23.8709C48.0833 23.8709 46.1875 23.9126 44.3333 24.0167C46.1667 21.6292 48.0625 19.4501 49.9375 17.4917ZM34.8542 29.5001C32.8328 32.6456 30.9694 35.8899 29.2708 39.2209C28.2009 36.5645 27.2623 33.8571 26.4583 31.1084C29.125 30.4751 31.9417 29.9251 34.8542 29.5001ZM16.4083 55.0168C9.19167 51.9418 4.525 47.9043 4.525 44.7043C4.525 41.5043 9.19167 37.4459 16.4083 34.3917C18.1583 33.6376 20.075 32.9626 22.0542 32.3334C23.2167 36.3251 24.7458 40.4834 26.6375 44.7459C24.8515 48.755 23.3411 52.8813 22.1167 57.0959C20.181 56.4966 18.276 55.8027 16.4083 55.0168V55.0168ZM27.375 84.1418C24.6042 82.5584 23.4 76.5001 24.3375 68.7168C24.5625 66.8001 24.9292 64.7793 25.3792 62.7209C29.3708 63.7001 33.7333 64.4543 38.3208 64.9459C40.9174 68.528 43.7501 71.9327 46.8 75.1376C40.1542 81.3126 33.9167 84.6959 29.675 84.6959C28.8748 84.7047 28.0847 84.5157 27.375 84.1459V84.1418ZM75.725 68.6126C76.6833 76.4001 75.5 82.4543 72.7458 84.0626C72.1375 84.4293 71.3417 84.5918 70.4042 84.5918C66.1833 84.5918 59.925 81.2293 53.2792 75.0918C56.1333 72.1001 58.9875 68.6959 61.7 64.9251C66.0674 64.4777 70.3985 63.7287 74.6625 62.6834C75.1333 64.7418 75.4958 66.7168 75.725 68.6126V68.6126ZM83.5708 55.0168C81.8208 55.7709 79.9042 56.4459 77.925 57.0751C76.6791 52.8389 75.1478 48.6919 73.3417 44.6626C75.2167 40.4251 76.7208 36.2876 77.8625 32.3126C79.8833 32.9418 81.7958 33.6376 83.5917 34.3917C90.8083 37.4667 95.475 41.5043 95.475 44.7043C95.4542 47.9043 90.7875 51.9626 83.5708 55.0168V55.0168Z"
              fill="white" fill-opacity="0.5"/>
        <path id="Vector_2"
              d="M49.9791 54.021C52.4501 54.021 54.8198 53.0394 56.567 51.2922C58.3142 49.545 59.2958 47.1753 59.2958 44.7044C59.2958 42.2334 58.3142 39.8637 56.567 38.1165C54.8198 36.3693 52.4501 35.3877 49.9791 35.3877C47.5082 35.3877 45.1385 36.3693 43.3913 38.1165C41.644 39.8637 40.6625 42.2334 40.6625 44.7044C40.6625 47.1753 41.644 49.545 43.3913 51.2922C45.1385 53.0394 47.5082 54.021 49.9791 54.021V54.021Z"
              fill="white" fill-opacity="0.5"/>
    </g>

    <!--    fiture section-->

    <g id="computer">
        <path id="Vector" fill-rule="evenodd" clip-rule="evenodd"
              d="M0.5 3.12505C0.5 2.34266 0.81607 1.59232 1.37868 1.03908C1.94129 0.485851 2.70435 0.175049 3.5 0.175049H18.5C19.2956 0.175049 20.0587 0.485851 20.6213 1.03908C21.1839 1.59232 21.5 2.34266 21.5 3.12505V14.925C21.5 15.7074 21.1839 16.4578 20.6213 17.011C20.0587 17.5642 19.2956 17.875 18.5 17.875H15.17L15.3545 18.5963L16.5605 19.7822C16.7702 19.9885 16.913 20.2513 16.9709 20.5374C17.0287 20.8235 16.999 21.12 16.8855 21.3895C16.772 21.6589 16.5798 21.8893 16.3332 22.0514C16.0866 22.2134 15.7966 22.3 15.5 22.3H6.5C6.20337 22.3 5.91343 22.2134 5.66681 22.0514C5.4202 21.8893 5.22799 21.6589 5.11448 21.3895C5.00098 21.12 4.97127 20.8235 5.02912 20.5374C5.08698 20.2513 5.22979 19.9885 5.4395 19.7822L6.6455 18.5963L6.83 17.875H3.5C2.70435 17.875 1.94129 17.5642 1.37868 17.011C0.81607 16.4578 0.5 15.7074 0.5 14.925V3.12505ZM9.1565 13.45H3.5V3.12505H18.5V13.45H9.1565Z"
              fill="white"/>
    </g>

    <g id="paint">
        <path id="Vector" fill-rule="evenodd" clip-rule="evenodd"
              d="M23.33 20.5852C24.896 14.8386 21.188 8.90315 15.0965 7.29835C8.21747 5.4841 -1.54603 10.1953 0.625967 16.2383C1.34597 18.237 2.73197 18.7045 5.34647 18.7414L5.50997 18.7444C6.89147 18.7606 7.27997 18.8491 7.39697 19.0349C7.58747 19.3417 7.59047 19.83 7.37597 21.1737C7.27397 21.8079 7.24097 22.0292 7.20197 22.3758C6.96347 24.4865 7.32647 26.1326 8.73197 27.6224C13.124 32.2731 21.5615 27.0722 23.33 20.5852ZM3.45497 15.253C2.36147 12.2145 9.35897 8.83825 14.3195 10.1451C18.845 11.3384 21.5585 15.6823 20.432 19.8196C19.175 24.4334 13.259 28.0796 10.931 25.6134C10.211 24.8523 10.0325 24.0381 10.184 22.7003C10.2155 22.4142 10.2455 22.2165 10.34 21.6295C10.6685 19.5689 10.664 18.6278 9.95297 17.4906C9.06197 16.0643 8.00297 15.8239 5.54747 15.7929L5.38847 15.7899C3.94247 15.7708 3.59897 15.6542 3.45347 15.253H3.45497Z"
              fill="#222A36"/>
        <path id="Vector_2"
              d="M8 14.75C7.50272 14.75 7.02581 14.5557 6.67417 14.21C6.32254 13.8642 6.125 13.3952 6.125 12.9062C6.125 12.4173 6.32254 11.9483 6.67417 11.6025C7.02581 11.2568 7.50272 11.0625 8 11.0625C8.49728 11.0625 8.97419 11.2568 9.32583 11.6025C9.67746 11.9483 9.875 12.4173 9.875 12.9062C9.875 13.3952 9.67746 13.8642 9.32583 14.21C8.97419 14.5557 8.49728 14.75 8 14.75Z"
              fill="#222A36"/>
        <path id="Vector_3"
              d="M13.625 14.75C13.1277 14.75 12.6508 14.5557 12.2992 14.21C11.9475 13.8642 11.75 13.3952 11.75 12.9062C11.75 12.4173 11.9475 11.9483 12.2992 11.6025C12.6508 11.2568 13.1277 11.0625 13.625 11.0625C14.1223 11.0625 14.5992 11.2568 14.9508 11.6025C15.3025 11.9483 15.5 12.4173 15.5 12.9062C15.5 13.3952 15.3025 13.8642 14.9508 14.21C14.5992 14.5557 14.1223 14.75 13.625 14.75Z"
              fill="#222A36"/>
        <path id="Vector_4"
              d="M17.375 19.175C16.8777 19.175 16.4008 18.9808 16.0492 18.635C15.6975 18.2893 15.5 17.8203 15.5 17.3313C15.5 16.8423 15.6975 16.3733 16.0492 16.0276C16.4008 15.6818 16.8777 15.4875 17.375 15.4875C17.8723 15.4875 18.3492 15.6818 18.7008 16.0276C19.0525 16.3733 19.25 16.8423 19.25 17.3313C19.25 17.8203 19.0525 18.2893 18.7008 18.635C18.3492 18.9808 17.8723 19.175 17.375 19.175Z"
              fill="#222A36"/>
        <path id="Vector_5"
              d="M15.125 24.3375C14.6277 24.3375 14.1508 24.1433 13.7992 23.7975C13.4475 23.4517 13.25 22.9828 13.25 22.4938C13.25 22.0048 13.4475 21.5358 13.7992 21.19C14.1508 20.8443 14.6277 20.65 15.125 20.65C15.6223 20.65 16.0992 20.8443 16.4508 21.19C16.8025 21.5358 17 22.0048 17 22.4938C17 22.9828 16.8025 23.4517 16.4508 23.7975C16.0992 24.1433 15.6223 24.3375 15.125 24.3375Z"
              fill="#222A36"/>
        <path id="Vector_6"
              d="M20.555 5.31754C20.7329 5.22384 20.9281 5.16639 21.1291 5.14862C21.33 5.13086 21.5326 5.15315 21.7246 5.21415C21.9166 5.27516 22.0941 5.37363 22.2465 5.50367C22.3989 5.63371 22.523 5.79264 22.6115 5.97097L28.751 18.361C28.8535 18.5837 28.8659 18.8364 28.7857 19.0678C28.7055 19.2992 28.5387 19.4918 28.3192 19.6066C28.0997 19.7214 27.844 19.7497 27.6041 19.6857C27.3641 19.6217 27.158 19.4703 27.0275 19.2622L19.9655 7.35894C19.864 7.18771 19.7987 6.99808 19.7735 6.80142C19.7483 6.60477 19.7638 6.40514 19.819 6.2145C19.8742 6.02387 19.9679 5.84616 20.0947 5.69203C20.2214 5.5379 20.3785 5.41052 20.5565 5.31754H20.555Z"
              fill="#222A36"/>
        <path id="Vector_7" fill-rule="evenodd" clip-rule="evenodd"
              d="M17.8054 5.13899C18.5359 6.48861 19.7644 6.86621 20.9524 6.24524C22.1389 5.62574 22.5094 4.41181 21.7789 3.06219C20.9449 1.51639 19.1569 0.115138 17.9719 0.733163C16.7869 1.35266 16.9699 3.59319 17.8069 5.13899H17.8054ZM19.1299 4.44574C18.8643 3.92128 18.7015 3.35235 18.6499 2.76866C18.6276 2.52465 18.6367 2.27884 18.6769 2.03706L18.7039 2.05034C18.7789 2.08574 19.0114 2.19194 19.3084 2.42499C19.7614 2.78046 20.2114 3.30409 20.4544 3.75396C20.7979 4.38821 20.7004 4.70681 20.2474 4.94429C19.7974 5.18029 19.4734 5.07999 19.1299 4.44721V4.44574Z"
              fill="#222A36"/>
    </g>

    <g id="thunder">
        <path id="Vector"
              d="M19.105 3.42873C19.7563 2.61871 19.1425 1.45837 18.06 1.45837H9.66504C9.19629 1.45837 8.76254 1.69437 8.52879 2.07542L2.17629 12.4692C1.67504 13.2879 2.30504 14.3093 3.31129 14.3093H7.59754L3.56004 24.2225C2.97629 25.4763 4.55379 26.6231 5.61379 25.716L22 10.4694H13.4388L19.105 3.42873V3.42873Z"
              stroke="#222A36" stroke-width="2" stroke-linecap="round" stroke-linejoin="round"/>
    </g>


    <!--    testimony section-->

    <g id="arrow left">
        <path d="M28.3333 13L1.66667 13" stroke="#676CDB" stroke-opacity="0.5" stroke-width="2" stroke-linecap="round"
              stroke-linejoin="round"/>
        <path d="M13.3333 24.6667L1.66667 13L13.3333 1.33335" stroke="#676CDB" stroke-opacity="0.5" stroke-width="2"
              stroke-linecap="round" stroke-linejoin="round"/>
    </g>
    <g id="arrow right">
            <path d="M1.66666 13.0001H28.3333" stroke="#676CDB" stroke-width="2" stroke-linecap="round" stroke-linejoin="round"/>
            <path d="M16.6667 1.33337L28.3333 13L16.6667 24.6667" stroke="#676CDB" stroke-width="2" stroke-linecap="round" stroke-linejoin="round"/>

    </g>

    <!--    footer-->

    <g id="Group">
        <path id="Vector"
              d="M21.9167 11.5C21.9184 12.8721 21.6483 14.2308 21.1218 15.4979C20.5953 16.7649 19.823 17.915 18.8495 18.8818C17.8839 19.8457 16.7378 20.6098 15.4767 21.1306C14.2157 21.6513 12.8643 21.9185 11.5 21.9167C5.74686 21.9167 1.08332 17.2531 1.08332 11.5C1.07968 8.82906 2.10565 6.25947 3.94791 4.32554C4.91996 3.29981 6.09109 2.48322 7.38964 1.92574C8.68819 1.36826 10.0868 1.08162 11.5 1.08335C12.8643 1.08159 14.2157 1.34871 15.4767 1.86945C16.7378 2.3902 17.8839 3.15435 18.8495 4.11825C19.823 5.08503 20.5953 6.23516 21.1218 7.50218C21.6483 8.7692 21.9184 10.128 21.9167 11.5V11.5Z"
              stroke="white" stroke-width="2" stroke-linecap="round" stroke-linejoin="round"/>
        <path id="Vector_2"
              d="M21.9167 11.5C20.3969 11.5 16.2042 10.9271 12.4515 12.5745C8.37498 14.3646 5.42342 17.1411 4.13696 18.8682"
              stroke="white" stroke-width="2" stroke-linecap="round" stroke-linejoin="round"/>
        <path id="Vector_3"
              d="M7.59375 1.84064C9.22396 3.34532 12.7812 7.17657 14.1042 10.9792C15.4271 14.7823 15.9167 19.4583 16.2188 20.7891"
              stroke="white" stroke-width="2" stroke-linecap="round" stroke-linejoin="round"/>
        <path id="Vector_4"
              d="M1.16354 10.1979C3.13125 10.3167 8.34011 10.4235 11.6734 9.00002C15.0068 7.57658 17.875 4.95835 18.8589 4.12762"
              stroke="white" stroke-width="2" stroke-linecap="round" stroke-linejoin="round"/>
        <path id="Vector_5" d="M1.86456 15.4651C2.78243 17.6869 4.43785 19.5246 6.55206 20.6688" stroke="white"
              stroke-width="2" stroke-linecap="round" stroke-linejoin="round"/>
        <path id="Vector_6" d="M1.08332 11.5C1.07968 8.82906 2.10565 6.25947 3.94791 4.32553" stroke="white"
              stroke-width="2" stroke-linecap="round" stroke-linejoin="round"/>
        <path id="Vector_7"
              d="M11.5 1.08335C10.0868 1.08162 8.68819 1.36826 7.38964 1.92574C6.09109 2.48322 4.91996 3.29981 3.94791 4.32554"
              stroke="white" stroke-width="2" stroke-linecap="round" stroke-linejoin="round"/>
        <path id="Vector_8"
              d="M15.6667 1.95001C16.8529 2.46904 17.9322 3.2043 18.8495 4.11824C19.823 5.08503 20.5954 6.23516 21.1218 7.50217C21.6483 8.76919 21.9184 10.128 21.9167 11.5C21.9167 12.7828 21.6849 14.011 21.2604 15.1458"
              stroke="white" stroke-width="2" stroke-linecap="round" stroke-linejoin="round"/>
        <path id="Vector_9"
              d="M11.5 21.9167C12.8644 21.9185 14.2157 21.6513 15.4767 21.1306C16.7378 20.6099 17.8839 19.8457 18.8495 18.8818"
              stroke="white" stroke-width="2" stroke-linecap="round" stroke-linejoin="round"/>
    </g>

    <g id="linkedin">
        <path id="Vector" fill-rule="evenodd" clip-rule="evenodd"
              d="M0.041672 1.95624C0.041672 1.44846 0.243386 0.961482 0.602441 0.602428C0.961495 0.243373 1.44848 0.041659 1.95626 0.041659H21.0417C21.2933 0.0412481 21.5426 0.0904746 21.7752 0.18652C22.0077 0.282566 22.2191 0.423544 22.3971 0.601384C22.5752 0.779224 22.7164 0.990434 22.8127 1.22292C22.909 1.45541 22.9585 1.7046 22.9583 1.95624V21.0417C22.9586 21.2934 22.9093 21.5426 22.8131 21.7752C22.7169 22.0078 22.5759 22.2192 22.3979 22.3972C22.22 22.5752 22.0087 22.7164 21.7762 22.8127C21.5437 22.909 21.2944 22.9585 21.0427 22.9583H1.95626C1.70474 22.9583 1.45569 22.9088 1.22334 22.8125C0.99098 22.7162 0.779871 22.5751 0.602072 22.3972C0.424273 22.2193 0.283268 22.0081 0.187112 21.7757C0.0909564 21.5433 0.0415352 21.2942 0.041672 21.0427V1.95624ZM9.11251 8.77916H12.2156V10.3375C12.6635 9.44166 13.8094 8.63541 15.5313 8.63541C18.8323 8.63541 19.6146 10.4198 19.6146 13.6937V19.7583H16.274V14.4396C16.274 12.575 15.826 11.5229 14.6885 11.5229C13.1104 11.5229 12.4542 12.6573 12.4542 14.4396V19.7583H9.11251V8.77916ZM3.38334 19.6156H6.72501V8.63541H3.38334V19.6146V19.6156ZM7.20313 5.05416C7.20943 5.34028 7.15852 5.62477 7.05338 5.89095C6.94824 6.15712 6.791 6.39961 6.59087 6.60419C6.39075 6.80877 6.15178 6.97132 5.88798 7.08229C5.62418 7.19326 5.34088 7.25043 5.05469 7.25043C4.76851 7.25043 4.4852 7.19326 4.22141 7.08229C3.95761 6.97132 3.71864 6.80877 3.51851 6.60419C3.31839 6.39961 3.16114 6.15712 3.05601 5.89095C2.95087 5.62477 2.89996 5.34028 2.90626 5.05416C2.91862 4.49255 3.15041 3.95811 3.55197 3.56529C3.95353 3.17247 4.49295 2.95251 5.05469 2.95251C5.61644 2.95251 6.15585 3.17247 6.55742 3.56529C6.95898 3.95811 7.19076 4.49255 7.20313 5.05416Z"
              fill="white"/>
    </g>

    <g id="github">
        <path id="Vector" fill-rule="evenodd" clip-rule="evenodd"
              d="M12.5 0C5.59375 0 0 5.59375 0 12.5C0 18.0312 3.57812 22.7031 8.54688 24.3594C9.17188 24.4688 9.40625 24.0938 9.40625 23.7656C9.40625 23.4688 9.39062 22.4844 9.39062 21.4375C6.25 22.0156 5.4375 20.6719 5.1875 19.9688C5.04688 19.6094 4.4375 18.5 3.90625 18.2031C3.46875 17.9688 2.84375 17.3906 3.89062 17.375C4.875 17.3594 5.57812 18.2812 5.8125 18.6562C6.9375 20.5469 8.73437 20.0156 9.45312 19.6875C9.5625 18.875 9.89062 18.3281 10.25 18.0156C7.46875 17.7031 4.5625 16.625 4.5625 11.8437C4.5625 10.4844 5.04688 9.35938 5.84375 8.48438C5.71875 8.17188 5.28125 6.89062 5.96875 5.17188C5.96875 5.17188 7.01562 4.84375 9.40625 6.45312C10.4062 6.17188 11.4687 6.03125 12.5312 6.03125C13.5937 6.03125 14.6562 6.17188 15.6562 6.45312C18.0469 4.82812 19.0938 5.17188 19.0938 5.17188C19.7812 6.89062 19.3438 8.17188 19.2188 8.48438C20.0156 9.35938 20.5 10.4687 20.5 11.8437C20.5 16.6406 17.5781 17.7031 14.7969 18.0156C15.25 18.4062 15.6406 19.1562 15.6406 20.3281C15.6406 22 15.625 23.3438 15.625 23.7656C15.625 24.0938 15.8594 24.4844 16.4844 24.3594C18.9658 23.5216 21.1221 21.9268 22.6496 19.7993C24.1772 17.6719 24.9993 15.119 25 12.5C25 5.59375 19.4062 0 12.5 0Z"
              fill="white"/>
    </g>

    <g id="upwork">
        <path id="Vector"
              d="M19.3359 13.7047C18.1883 13.7047 17.1102 13.2203 16.1336 12.4273L16.3695 11.3086L16.3773 11.2641C16.593 10.0758 17.2602 8.07812 19.3352 8.07812C20.0818 8.07833 20.7979 8.37504 21.3259 8.90303C21.8539 9.43101 22.1506 10.1471 22.1508 10.8937C22.1495 11.6398 21.8524 12.3548 21.3245 12.8819C20.7966 13.4091 20.0812 13.7053 19.3352 13.7055L19.3359 13.7047ZM19.3359 5.2289C16.6914 5.2289 14.6359 6.94609 13.8023 9.77421C12.5328 7.86562 11.5641 5.57109 11.0031 3.63828H8.15469V11.0477C8.15324 11.7509 7.87325 12.4249 7.37601 12.9221C6.87876 13.4193 6.20477 13.6993 5.50156 13.7008C4.79854 13.6987 4.12491 13.4185 3.6278 12.9214C3.13069 12.4243 2.8505 11.7507 2.84844 11.0477V3.63828H0V11.0477C0 14.0828 2.46953 16.5695 5.50156 16.5695C8.53672 16.5695 11.0031 14.0836 11.0031 11.0477V9.80624C11.5562 10.9578 12.2359 12.1297 13.0617 13.1633L11.3164 21.3625H14.2297L15.4953 15.4133C16.6023 16.1211 17.8758 16.5687 19.3367 16.5687C22.4617 16.5687 25.0008 14.0133 25.0008 10.8922C25.0008 7.76718 22.4617 5.22812 19.3367 5.22812L19.3359 5.2289Z"
              fill="white"/>
    </g>

    <g id="youtube">
        <path id="Vector"
              d="M24.4793 2.77812C24.3377 2.27316 24.062 1.81598 23.6814 1.45521C23.29 1.08333 22.8103 0.817327 22.2876 0.682289C20.3314 0.166664 12.4939 0.166665 12.4939 0.166665C9.22651 0.12949 5.95995 0.292992 2.71262 0.656248C2.18991 0.801261 1.71113 1.07321 1.31887 1.44791C0.933457 1.81875 0.654291 2.27604 0.508457 2.77708C0.158138 4.66431 -0.0120717 6.58056 0.0001241 8.5C-0.0123759 10.4177 0.157416 12.3333 0.508457 14.2229C0.651166 14.7219 0.929291 15.1771 1.31575 15.5448C1.70221 15.9125 2.18346 16.1781 2.71262 16.3187C4.69492 16.8333 12.4939 16.8333 12.4939 16.8333C15.7654 16.8706 19.0361 16.7071 22.2876 16.3437C22.8103 16.2087 23.29 15.9427 23.6814 15.5708C24.0668 15.2031 24.3408 14.7458 24.4783 14.2479C24.8377 12.3614 25.0125 10.4444 25.0001 8.52396C25.0272 6.59542 24.8526 4.66934 24.4793 2.77708V2.77812ZM10.0022 12.0667V4.93437L16.523 8.50104L10.0022 12.0667Z"
              fill="white"/>
    </g>
</svg>
